/* XPM */
static char * maximize_toggled_active_xpm[] = {
"45 32 3 1",
" 	c None",
".	c #263238",
"+	c #FFFFFF",
".............................................",
".............................................",
".............................................",
".............................................",
".............................................",
".............................................",
".............................................",
".............................................",
".............................................",
".............................................",
"....................++++++++.................",
"....................+......+.................",
"..................++++++++.+.................",
"..................+......+.+.................",
"..................+......+.+.................",
"..................+......+.+.................",
"..................+......+.+.................",
"..................+......+++.................",
"..................+......+...................",
"..................++++++++...................",
".............................................",
".............................................",
".............................................",
".............................................",
".............................................",
".............................................",
".............................................",
".............................................",
".............................................",
".............................................",
".............................................",
"............................................."};
